<svg width="53" height="54" xmlns="http://www.w3.org/2000/svg" xmlns:xlink="http://www.w3.org/1999/xlink" xml:space="preserve" overflow="hidden"><defs><clipPath id="clip0"><rect x="236" y="242" width="53" height="54"/></clipPath><clipPath id="clip1"><rect x="236" y="242" width="53" height="54"/></clipPath><clipPath id="clip2"><rect x="237" y="243" width="52" height="53"/></clipPath><clipPath id="clip3"><rect x="237" y="243" width="52" height="53"/></clipPath><clipPath id="clip4"><rect x="237" y="243" width="52" height="53"/></clipPath></defs><g clip-path="url(#clip0)" transform="translate(-236 -242)"><g clip-path="url(#clip1)"><g clip-path="url(#clip2)"><g clip-path="url(#clip3)"><g clip-path="url(#clip4)"><path d="M52.0001 373.287 0 373.287 0 369.572C-2.51219e-16 367.52 1.66295 365.858 3.71429 365.858L48.2858 365.858C50.3373 365.858 52.0001 367.52 52.0001 369.572L52.0001 373.287M52.0001 375.144 52.0001 403.001C52.0001 405.053 50.3373 406.715 48.2858 406.715L3.71429 406.715C1.66295 406.715 2.51219e-16 405.053 0 403.001L0 375.144 52.0001 375.144M22.2858 378.858 22.2858 382.572 29.7144 382.572 29.7144 378.858 22.2858 378.858M18.5715 358.429 33.4287 358.429C35.4801 358.429 37.1429 360.092 37.1429 362.144L37.1429 367.715C37.1429 369.767 35.4801 371.43 33.4287 371.43L18.5715 371.43C16.5201 371.43 14.8572 369.767 14.8572 367.715L14.8572 362.144C14.8572 360.092 16.5201 358.429 18.5715 358.429M18.5715 360.287C17.5458 360.287 16.7143 361.118 16.7143 362.144L16.7143 367.715C16.7143 368.741 17.5458 369.572 18.5715 369.572L33.4287 369.572C34.4543 369.572 35.2858 368.741 35.2858 367.715L35.2858 362.144C35.2858 361.118 34.4543 360.287 33.4287 360.287L18.5715 360.287" fill="#FFFFFF" fill-rule="nonzero" fill-opacity="1" transform="matrix(1 0 0 1.01923 237 -120.429)"/></g></g></g></g></g></svg>